<svg width="94" height="42" viewBox="0 0 94 42" fill="none" xmlns="http://www.w3.org/2000/svg">
<path d="M37.536 0.551998C38.1333 0.551998 38.8587 0.957331 39.712 1.768C40.608 2.536 41.056 3.19733 41.056 3.752C41.056 6.35467 40.9707 9.91733 40.8 14.44C40.7573 15.5493 40.7147 16.8933 40.672 18.472C40.6293 20.008 40.608 21.8 40.608 23.848C40.608 30.3333 40.992 35.112 41.76 38.184C41.7173 39.208 41.312 39.9547 40.544 40.424C39.776 40.8507 39.008 41.064 38.24 41.064C36.5333 41.064 35.4027 40.4667 34.848 39.272C34.336 38.0773 34.08 36.3707 34.08 34.152C34.08 25.9173 34.1653 18.344 34.336 11.432C29.4293 16.8933 25.6107 21.48 22.88 25.192C22.88 25.192 22.496 25.448 21.728 25.96C21.0027 26.6 20.4053 26.92 19.936 26.92C18.8267 26.92 17.9093 26.6427 17.184 26.088C16.4587 25.5333 15.7547 24.7227 15.072 23.656L12 19.304C9.86667 16.3173 8.30933 14.056 7.328 12.52C7.328 16.4453 7.52 21.7787 7.904 28.52C8.20267 32.4027 8.352 35.3253 8.352 37.288C8.352 38.312 8.096 39.1867 7.584 39.912C7.072 40.5947 6.26133 40.936 5.152 40.936C4.04267 40.936 3.12533 40.7227 2.4 40.296C1.71733 39.8693 1.35467 39.2293 1.312 38.376C1.35467 37.6507 1.376 36.456 1.376 34.792C1.376 31.464 1.26933 27.4107 1.056 22.632L0.928 19.176L0.8 14.696C0.757333 13.3733 0.714667 11.8373 0.672 10.088C0.629334 8.296 0.608 6.35467 0.608 4.264C0.608 1.704 1.99467 0.424 4.768 0.424C5.62133 0.424 6.47467 0.637333 7.328 1.064C8.224 1.49067 8.88533 2.10933 9.312 2.92C9.65333 4.41333 10.912 6.888 13.088 10.344C15.264 13.8 17.3973 17.0427 19.488 20.072C21.3653 17.6827 22.9013 15.8907 24.096 14.696C26.144 12.6053 27.8293 10.664 29.152 8.872C30.5173 7.08 31.9893 4.92533 33.568 2.408C33.952 1.896 34.5067 1.46933 35.232 1.128C35.9573 0.743998 36.7253 0.551998 37.536 0.551998ZM92.7125 3.752C92.7125 6.312 92.6272 9.896 92.4565 14.504C92.4138 15.6133 92.3712 16.9573 92.3285 18.536C92.2858 20.072 92.2645 21.864 92.2645 23.912C92.2645 30.6107 92.6272 35.4107 93.3525 38.312C93.3098 39.3787 92.9045 40.1467 92.1365 40.616C91.3685 41.0427 90.5792 41.256 89.7685 41.256C88.1045 41.256 86.9952 40.6587 86.4405 39.464C85.9285 38.2267 85.6725 36.4987 85.6725 34.28C85.6725 26.0453 85.8005 18.4293 86.0565 11.432C85.2458 13.0533 84.4778 14.8453 83.7525 16.808C83.0698 18.728 82.1525 21.416 81.0005 24.872C79.8058 28.6267 78.7818 31.592 77.9285 33.768C77.1178 35.944 76.2645 37.6293 75.3685 38.824C75.1125 38.952 74.6005 39.208 73.8325 39.592C73.1072 39.9333 72.4672 40.104 71.9125 40.104C71.0165 40.104 70.3765 39.9547 69.9925 39.656C69.6085 39.3573 69.2672 38.9307 68.9685 38.376C68.6698 37.8213 68.4138 37.3733 68.2005 37.032C67.5178 36.008 66.6432 34.3227 65.5765 31.976C64.5098 29.6293 63.5285 27.176 62.6325 24.616C62.2912 23.72 61.9712 22.8667 61.6725 22.056C61.4165 21.2027 61.1605 20.4133 60.9045 19.688C60.3925 18.152 59.8805 16.7227 59.3685 15.4C58.8992 14.0347 58.4938 13.0747 58.1525 12.52C58.1525 14.7813 58.0885 17.0427 57.9605 19.304C57.8752 22.0347 57.8325 23.9973 57.8325 25.192C57.8325 26.0453 57.8752 27.1973 57.9605 28.648C58.2165 33.0853 58.3445 36.008 58.3445 37.416C58.3445 38.44 58.0885 39.3147 57.5765 40.04C57.0645 40.7653 56.2752 41.128 55.2085 41.128C54.0565 41.128 53.1178 40.9147 52.3925 40.488C51.7098 40.0187 51.3472 39.336 51.3045 38.44C51.3472 37.7147 51.3685 36.5413 51.3685 34.92C51.3685 31.6347 51.2405 26.408 50.9845 19.24L50.9205 16.936C50.9205 15.3147 51.0058 13.0107 51.1765 10.024C51.2192 9.29866 51.2618 8.44533 51.3045 7.464C51.3472 6.48266 51.3685 5.416 51.3685 4.264C51.3685 2.94133 51.8165 1.98133 52.7125 1.384C53.6085 0.743999 54.7605 0.424 56.1685 0.424C57.0218 0.424 57.8752 0.637333 58.7285 1.064C59.6245 1.49067 60.2858 2.10933 60.7125 2.92C61.5658 4.66933 62.4192 6.73867 63.2725 9.128C64.1258 11.4747 65.2778 14.824 66.7285 19.176C68.0938 23.3147 69.1818 26.472 69.9925 28.648C70.8032 30.7813 71.4858 32.232 72.0405 33L73.5125 28.648C78.3338 13.928 81.5765 5.224 83.2405 2.536C83.6245 2.024 84.2858 1.576 85.2245 1.192C86.2058 0.765331 87.1232 0.551998 87.9765 0.551998C88.6165 0.551998 89.5552 0.957331 90.7925 1.768C92.0725 2.536 92.7125 3.19733 92.7125 3.752Z" fill="black"/>
</svg>
